<svg xmlns="http://www.w3.org/2000/svg" viewBox="0 0 24 24"><title>Google Calendar</title>
  <path fill="#FBBC04" d="M1.895 0C.848 0 0 .848 0 1.895V18.316h5.684V0H1.895z"/>
  <path fill="#EA4335" d="M5.684 0h12.632v5.684H5.684z"/>
  <path fill="#4285F4" d="M22.105 0H18.316v5.684H24V1.895C24 .848 23.152 0 22.105 0z"/>
  <path fill="#4285F4" d="M18.316 5.684H24v12.632h-5.684z"/>
  <path fill="#34A853" d="M5.684 18.316h12.632V24H5.684z"/>
  <path fill="#34A853" d="M0 18.316v3.789C0 23.152.848 24 1.895 24H5.684v-5.684H0z"/>
  <rect fill="#fff" x="5.684" y="5.684" width="12.632" height="12.632"/>
  <path fill="#4285F4" d="M11.109 11.934v-.065c.272-.144.5-.349.687-.617s.279-.595.279-.982c0-.379-.099-.72-.3-1.025a2.05 2.05 0 0 0-.832-.714 2.703 2.703 0 0 0-1.197-.257c-.6 0-1.094.156-1.481.467-.386.311-.65.671-.793 1.078l1.085.452c.086-.249.224-.461.413-.633.189-.172.445-.257.767-.257.33 0 .602.088.816.264a.86.86 0 0 1 .322.703c0 .33-.12.589-.36.778-.24.19-.535.284-.886.284h-.567v1.085h.633c.407 0 .748.109 1.02.327.272.218.407.499.407.843 0 .336-.129.614-.387.832s-.565.327-.924.327c-.351 0-.651-.103-.897-.311-.248-.208-.422-.502-.521-.881l-1.096.452c.178.616.505 1.082.977 1.401.472.319.984.478 1.538.477a2.84 2.84 0 0 0 1.293-.291c.382-.193.684-.458.902-.794.218-.336.327-.72.327-1.149 0-.429-.115-.797-.344-1.105a2.067 2.067 0 0 0-.881-.689z"/>
  <path fill="#4285F4" d="M13.202 10.003l.602.913L15 10.045v5.744h1.187V8.446h-.827l-2.158 1.557z"/>
  <path fill="#1A73E8" d="M18.816 23.5l4.684-4.684h-4.684z"/>
</svg>
